<?xml version="1.0" encoding="utf-8"?>
<!-- Generator: Adobe Illustrator 21.1.0, SVG Export Plug-In . SVG Version: 6.00 Build 0)  -->
<svg version="1.1" id="Layer_1" xmlns="http://www.w3.org/2000/svg" xmlns:xlink="http://www.w3.org/1999/xlink" x="0px" y="0px"
	 width="200px" height="200px" viewBox="0 0 200 200" style="enable-background:new 0 0 200 200;" xml:space="preserve">
<style type="text/css">
	.st0{fill:#FFFFFF;}
</style>
<g>
	<path class="st0" d="M152.4,68.9c-2.6-1.2-6.1-1.8-10.5-1.8h-23v29.8h23c5.2,0,9.4-1.1,12.6-3.3c3.2-2.2,4.8-6.1,4.8-11.8
		C159.4,75.4,157.1,71.1,152.4,68.9z M152.4,68.9c-2.6-1.2-6.1-1.8-10.5-1.8h-23v29.8h23c5.2,0,9.4-1.1,12.6-3.3
		c3.2-2.2,4.8-6.1,4.8-11.8C159.4,75.4,157.1,71.1,152.4,68.9z M152.4,68.9c-2.6-1.2-6.1-1.8-10.5-1.8h-23v29.8h23
		c5.2,0,9.4-1.1,12.6-3.3c3.2-2.2,4.8-6.1,4.8-11.8C159.4,75.4,157.1,71.1,152.4,68.9z M152.4,68.9c-2.6-1.2-6.1-1.8-10.5-1.8h-23
		v29.8h23c5.2,0,9.4-1.1,12.6-3.3c3.2-2.2,4.8-6.1,4.8-11.8C159.4,75.4,157.1,71.1,152.4,68.9z M100,0C44.8,0,0,44.8,0,100
		c0,55.2,44.8,100,100,100s100-44.8,100-100C200,44.8,155.2,0,100,0z M133.1,143c-3.3,0-5.9-2.6-5.9-5.9c0-3.2,2.6-5.9,5.9-5.9
		c3.2,0,5.9,2.6,5.9,5.9C139,140.3,136.3,143,133.1,143z M157.2,143c-3.2,0-5.9-2.6-5.9-5.9c0-3.2,2.6-5.9,5.9-5.9
		c3.3,0,5.9,2.6,5.9,5.9C163.1,140.3,160.4,143,157.2,143z M164.9,99.2c-4.2,5-10.5,7.5-19.1,7.5h-26.8V143h-11.6V71.2L83,143H71.5
		L46.7,70.5v2.6c0,2.1,0.1,5.3,0.2,9.6s0.2,7.5,0.2,9.5V143H36V57h16.7l24.7,72.6L101.9,57h43.9c7.6,0,13.7,2.2,18.4,6.5
		c4.7,4.3,7,10.4,7,18.2C171.2,88.4,169.1,94.2,164.9,99.2z M152.4,68.9c-2.6-1.2-6.1-1.8-10.5-1.8h-23v29.8h23
		c5.2,0,9.4-1.1,12.6-3.3c3.2-2.2,4.8-6.1,4.8-11.8C159.4,75.4,157.1,71.1,152.4,68.9z M152.4,68.9c-2.6-1.2-6.1-1.8-10.5-1.8h-23
		v29.8h23c5.2,0,9.4-1.1,12.6-3.3c3.2-2.2,4.8-6.1,4.8-11.8C159.4,75.4,157.1,71.1,152.4,68.9z M152.4,68.9
		c-2.6-1.2-6.1-1.8-10.5-1.8h-23v29.8h23c5.2,0,9.4-1.1,12.6-3.3c3.2-2.2,4.8-6.1,4.8-11.8C159.4,75.4,157.1,71.1,152.4,68.9z
		 M152.4,68.9c-2.6-1.2-6.1-1.8-10.5-1.8h-23v29.8h23c5.2,0,9.4-1.1,12.6-3.3c3.2-2.2,4.8-6.1,4.8-11.8
		C159.4,75.4,157.1,71.1,152.4,68.9z M152.4,68.9c-2.6-1.2-6.1-1.8-10.5-1.8h-23v29.8h23c5.2,0,9.4-1.1,12.6-3.3
		c3.2-2.2,4.8-6.1,4.8-11.8C159.4,75.4,157.1,71.1,152.4,68.9z"/>
</g>
</svg>
